<?xml version="1.0" ?><svg height="24px" version="1.1" viewBox="0 0 24 24" width="24px" xmlns="http://www.w3.org/2000/svg" xmlns:sketch="http://www.bohemiancoding.com/sketch/ns" xmlns:xlink="http://www.w3.org/1999/xlink"><title/><desc/><defs/><g fill="none" fill-rule="evenodd" id="miu" stroke="none" stroke-width="1"><g id="Artboard-1" transform="translate(-863.000000, -335.000000)"><g id="slice" transform="translate(215.000000, 119.000000)"/><path d="M884.990631,339 C885.54809,339 886,339.444946 886,339.993398 L886,356.006602 C886,356.555241 885.560542,357 884.997538,357 L865.002462,357 C864.448817,357 864,356.555054 864,356.006602 L864,339.993398 C864,339.444759 864.443353,339 865.009369,339 L868,339 L868,340 L865,340.046873 L865,356 L885,356 L885,340 L882,340 L882,339 L884.990631,339 Z M878,339 L877,339 L877,340 L878,340 L878,339 Z M873,339 L872,339 L872,340 L873,340 L873,339 Z M869.218526,344 C869.097838,344 869,344.088743 869,344.199961 L869,344.800039 C869,344.910474 869.096593,345 869.218526,345 L880.781474,345 C880.902162,345 881,344.911257 881,344.800039 L881,344.199961 C881,344.089526 880.903407,344 880.781474,344 L869.218526,344 Z M869.218526,348 C869.097838,348 869,348.088743 869,348.199961 L869,348.800039 C869,348.910474 869.096593,349 869.218526,349 L880.781474,349 C880.902162,349 881,348.911257 881,348.800039 L881,348.199961 C881,348.089526 880.903407,348 880.781474,348 L869.218526,348 Z M869.218526,352 C869.097838,352 869,352.088743 869,352.199961 L869,352.800039 C869,352.910474 869.096593,353 869.218526,353 L880.781474,353 C880.902162,353 881,352.911257 881,352.800039 L881,352.199961 C881,352.089526 880.903407,352 880.781474,352 L869.218526,352 Z M870,341 C870.552285,341 871,340.10457 871,339 C871,337.89543 870.552285,337 870,337 C869.447715,337 869,337.89543 869,339 C869,340.10457 869.447715,341 870,341 Z M875,341 C875.552285,341 876,340.10457 876,339 C876,337.89543 875.552285,337 875,337 C874.447715,337 874,337.89543 874,339 C874,340.10457 874.447715,341 875,341 Z M880,341 C880.552285,341 881,340.10457 881,339 C881,337.89543 880.552285,337 880,337 C879.447715,337 879,337.89543 879,339 C879,340.10457 879.447715,341 880,341 Z" fill="#000000" id="editor-memo-note-pad-outline-stroke"/></g></g></svg>