<?xml version="1.0" ?><svg height="32" id="svg2" overflow="visible" style="fill-rule:evenodd;stroke-width:0.50099999;stroke-linejoin:bevel;overflow:visible" version="1.1" viewBox="0 0 25.600005 25.600001" width="32" xmlns="http://www.w3.org/2000/svg" xmlns:cc="http://creativecommons.org/ns#" xmlns:dc="http://purl.org/dc/elements/1.1/" xmlns:inkscape="http://www.inkscape.org/namespaces/inkscape" xmlns:rdf="http://www.w3.org/1999/02/22-rdf-syntax-ns#" xmlns:sodipodi="http://sodipodi.sourceforge.net/DTD/sodipodi-0.dtd" xmlns:svg="http://www.w3.org/2000/svg" xmlns:xlink="http://www.w3.org/1999/xlink"><script id="script3301" xlink:href=""/><script id="script3299" xlink:href=""/><defs id="defs4"><marker id="DefaultArrow2" markerHeight="1" markerUnits="strokeWidth" markerWidth="1" orient="auto" overflow="visible" style="overflow:visible" viewBox="0 0 1 1"><g id="g7" transform="scale(0.00925926,0.00925926)"><path d="M -9,54 -9,-54 117,0 z" id="path9"/></g></marker><marker id="DefaultArrow3" markerHeight="1" markerUnits="strokeWidth" markerWidth="1" orient="auto" overflow="visible" style="overflow:visible" viewBox="0 0 1 1"><g id="g12" transform="scale(0.00925926,0.00925926)"><path d="M -27,54 -9,0 -27,-54 135,0 z" id="path14"/></g></marker><marker id="DefaultArrow4" markerHeight="1" markerUnits="strokeWidth" markerWidth="1" orient="auto" overflow="visible" style="overflow:visible" viewBox="0 0 1 1"><g id="g17" transform="scale(0.00925926,0.00925926)"><path d="M -9,0 -9,-45 C -9,-51.708 2.808,-56.58 9,-54 L 117,-9 C 120.916,-7.369 126,-4.242 126,0 126,4.242 120.916,7.369 117,9 L 9,54 C 2.808,56.58 -9,51.708 -9,45 z" id="path19"/></g></marker><marker id="DefaultArrow5" markerHeight="1" markerUnits="strokeWidth" markerWidth="1" orient="auto" overflow="visible" style="overflow:visible" viewBox="0 0 1 1"><g id="g22" transform="scale(0.00925926,0.00925926)"><path d="M -54,0 C -54,29.807 -29.807,54 0,54 29.807,54 54,29.807 54,0 54,-29.807 29.807,-54 0,-54 -29.807,-54 -54,-29.807 -54,0 z" id="path24"/></g></marker><marker id="DefaultArrow6" markerHeight="1" markerUnits="strokeWidth" markerWidth="1" orient="auto" overflow="visible" style="overflow:visible" viewBox="0 0 1 1"><g id="g27" transform="scale(0.00925926,0.00925926)"><path d="M -63,0 0,63 63,0 0,-63 z" id="path29"/></g></marker><marker id="DefaultArrow7" markerHeight="1" markerUnits="strokeWidth" markerWidth="1" orient="auto" overflow="visible" style="overflow:visible" viewBox="0 0 1 1"><g id="g32" transform="scale(0.00925926,0.00925926)"><path d="M 18,-54 108,-54 63,0 108,54 18,54 -36,0 z" id="path34"/></g></marker><marker id="DefaultArrow8" markerHeight="1" markerUnits="strokeWidth" markerWidth="1" orient="auto" overflow="visible" style="overflow:visible" viewBox="0 0 1 1"><g id="g37" transform="scale(0.00925926,0.00925926)"><path d="M -36,0 18,-54 54,-54 18,-18 27,-18 63,-54 99,-54 63,-18 72,-18 108,-54 144,-54 90,0 144,54 108,54 72,18 63,18 99,54 63,54 27,18 18,18 54,54 18,54 z" id="path39"/></g></marker><marker id="DefaultArrow9" markerHeight="1" markerUnits="strokeWidth" markerWidth="1" orient="auto" overflow="visible" style="overflow:visible" viewBox="0 0 1 1"><g id="g42" transform="scale(0.00925926,0.00925926)"><path d="M 0,45 -45,0 0,-45 45,0 z M 0,63 -63,0 0,-63 63,0 z" id="path44"/></g></marker><filter color-interpolation-filters="sRGB" id="StainedFilter"><feBlend id="feBlend47" in="SourceGraphic" in2="BackgroundImage" mode="multiply" result="blend"/><feComposite id="feComposite49" in="blend" in2="SourceAlpha" operator="in" result="comp"/></filter><filter color-interpolation-filters="sRGB" id="BleachFilter"><feBlend id="feBlend52" in="SourceGraphic" in2="BackgroundImage" mode="screen" result="blend"/><feComposite id="feComposite54" in="blend" in2="SourceAlpha" operator="in" result="comp"/></filter><filter color-interpolation-filters="sRGB" id="InvertTransparencyBitmapFilter"><feComponentTransfer id="feComponentTransfer57"><feFuncR amplitude="1.055" exponent=".416666666" id="feFuncR59" offset="-0.055" type="gamma"/><feFuncG amplitude="1.055" exponent=".416666666" id="feFuncG61" offset="-0.055" type="gamma"/><feFuncB amplitude="1.055" exponent=".416666666" id="feFuncB63" offset="-0.055" type="gamma"/></feComponentTransfer><feComponentTransfer id="feComponentTransfer65"><feFuncR id="feFuncR67" intercept="1" slope="-1" type="linear"/><feFuncG id="feFuncG69" intercept="1" slope="-1" type="linear"/><feFuncB id="feFuncB71" intercept="1" slope="-1" type="linear"/><feFuncA id="feFuncA73" intercept="0" slope="1" type="linear"/></feComponentTransfer><feComponentTransfer id="feComponentTransfer75"><feFuncR amplitude="1" exponent="2.4" id="feFuncR77" offset="0" type="gamma"/><feFuncG amplitude="1" exponent="2.4" id="feFuncG79" offset="0" type="gamma"/><feFuncB amplitude="1" exponent="2.4" id="feFuncB81" offset="0" type="gamma"/></feComponentTransfer></filter><radialGradient cx="0" cy="0" gradientTransform="matrix(0,-1,0.886054,0,172.174,122.358)" gradientUnits="userSpaceOnUse" id="RadialGradient" r="237.42799"><stop id="stop84" offset="0" stop-color="#473600"/><stop id="stop86" offset="0.792135000228882" stop-color="#3d2f00"/><stop id="stop88" offset="0.990000009536743" stop-color="#3a2c00"/><stop id="stop90" offset="1" stop-color="#3a2c00"/></radialGradient><radialGradient cx="0" cy="0" gradientTransform="matrix(0,-1,0.886054,0,170.916,119.88)" gradientUnits="userSpaceOnUse" id="RadialGradient_1" r="237.42799"><stop id="stop93" offset="0" stop-color="#553e00"/><stop id="stop95" offset="0.792135000228882" stop-color="#403200"/><stop id="stop97" offset="0.990000009536743" stop-color="#3b2b00"/><stop id="stop99" offset="1" stop-color="#3b2b00"/></radialGradient><radialGradient cx="0" cy="0" gradientTransform="matrix(0,-1,0.886054,0,169.66,117.403)" gradientUnits="userSpaceOnUse" id="RadialGradient_2" r="237.42799"><stop id="stop102" offset="0" stop-color="#634700"/><stop id="stop104" offset="0.792135000228882" stop-color="#443400"/><stop id="stop106" offset="0.990000009536743" stop-color="#3c2a00"/><stop id="stop108" offset="1" stop-color="#3c2a00"/></radialGradient><radialGradient cx="0" cy="0" gradientTransform="matrix(0,-1,0.886054,0,168.403,114.925)" gradientUnits="userSpaceOnUse" id="RadialGradient_3" r="237.42799"><stop id="stop111" offset="0" stop-color="#724f00"/><stop id="stop113" offset="0.792135000228882" stop-color="#473600"/><stop id="stop115" offset="0.990000009536743" stop-color="#3c2900"/><stop id="stop117" offset="1" stop-color="#3c2900"/></radialGradient><radialGradient cx="0" cy="0" gradientTransform="matrix(0,-1,0.886054,0,167.146,112.448)" gradientUnits="userSpaceOnUse" id="RadialGradient_4" r="237.42799"><stop id="stop120" offset="0" stop-color="#805800"/><stop id="stop122" offset="0.792135000228882" stop-color="#4b3800"/><stop id="stop124" offset="0.990000009536743" stop-color="#3d2800"/><stop id="stop126" offset="1" stop-color="#3d2800"/></radialGradient><radialGradient cx="0" cy="0" gradientTransform="matrix(0,-1,0.886054,0,165.889,109.97)" gradientUnits="userSpaceOnUse" id="RadialGradient_5" r="237.42799"><stop id="stop129" offset="0" stop-color="#8e6000"/><stop id="stop131" offset="0.792135000228882" stop-color="#4e3b00"/><stop id="stop133" offset="0.990000009536743" stop-color="#3e2700"/><stop id="stop135" offset="1" stop-color="#3e2700"/></radialGradient><radialGradient cx="0" cy="0" gradientTransform="matrix(0,-1,0.886054,0,164.632,107.493)" gradientUnits="userSpaceOnUse" id="RadialGradient_6" r="237.42799"><stop id="stop138" offset="0" stop-color="#9c6900"/><stop id="stop140" offset="0.792135000228882" stop-color="#523d00"/><stop id="stop142" offset="0.990000009536743" stop-color="#3f2600"/><stop id="stop144" offset="1" stop-color="#3f2600"/></radialGradient><linearGradient gradientTransform="translate(218.601,165.399)" gradientUnits="userSpaceOnUse" id="LinearGradient" x1="0" x2="42.75" y1="0" y2="36.75"><stop id="stop147" offset="0" stop-color="#5c5c5c"/><stop id="stop149" offset="1" stop-color="#000000"/></linearGradient><linearGradient gradientTransform="translate(181.122,157.792)" gradientUnits="userSpaceOnUse" id="LinearGradient_1" x1="0" x2="-9.6719999" y1="0" y2="-141.858"><stop id="stop152" offset="0" stop-color="#ffffff"/><stop id="stop154" offset="1" stop-color="#cfd1d2"/></linearGradient><linearGradient gradientTransform="translate(259.851,172.899)" gradientUnits="userSpaceOnUse" id="LinearGradient_2" x1="0" x2="69.75" y1="0" y2="-189.75"><stop id="stop157" offset="0" stop-color="#b5b5b5"/><stop id="stop159" offset="1" stop-color="#000000"/></linearGradient><linearGradient gradientTransform="translate(204.11,87.059)" gradientUnits="userSpaceOnUse" id="LinearGradient_3" x1="0" x2="-51.527" y1="0" y2="-64.410004"><stop id="stop162" offset="0" stop-color="#df9000"/><stop id="stop164" offset="0.730337023735046" stop-color="#7f5200"/><stop id="stop166" offset="0.990000009536743" stop-color="#3f2600"/><stop id="stop168" offset="1" stop-color="#3f2600"/></linearGradient><linearGradient gradientTransform="translate(199.945,96.333)" gradientUnits="userSpaceOnUse" id="LinearGradient_4" x1="0" x2="19.041" y1="0" y2="85.190002"><stop id="stop171" offset="0" stop-color="#ba7d00"/><stop id="stop173" offset="0.792135000228882" stop-color="#7f5200"/><stop id="stop175" offset="0.990000009536743" stop-color="#3f2600"/><stop id="stop177" offset="1" stop-color="#3f2600"/></linearGradient><linearGradient gradientTransform="translate(129.134,111.014)" gradientUnits="userSpaceOnUse" id="LinearGradient_5" x1="0" x2="-1.007" y1="0" y2="-63.535999"><stop id="stop180" offset="0" stop-color="#df9000"/><stop id="stop182" offset="0.792135000228882" stop-color="#7f5200"/><stop id="stop184" offset="0.990000009536743" stop-color="#3f2600"/><stop id="stop186" offset="1" stop-color="#3f2600"/></linearGradient><linearGradient gradientTransform="translate(129.286,104.867)" gradientUnits="userSpaceOnUse" id="LinearGradient_6" x1="0" x2="15.098" y1="0" y2="58.375"><stop id="stop189" offset="0" stop-color="#df9000"/><stop id="stop191" offset="0.792135000228882" stop-color="#7f5200"/><stop id="stop193" offset="0.990000009536743" stop-color="#3f2600"/><stop id="stop195" offset="1" stop-color="#3f2600"/></linearGradient><radialGradient cx="0" cy="0" gradientTransform="matrix(0.69735527,-0.71672563,1.2319152,1.1986212,183.351,196.899)" gradientUnits="userSpaceOnUse" id="RadialGradient_7" r="38.716999"><stop id="stop198" offset="0" stop-color="#6b4c29"/><stop id="stop200" offset="1" stop-color="#a57348"/></radialGradient><radialGradient cx="0" cy="0" gradientTransform="matrix(0,-1,0.973942,0,134.346,314.993)" gradientUnits="userSpaceOnUse" id="RadialGradient_8" r="120.999"><stop id="stop203" offset="0" stop-color="#e0bf9e"/><stop id="stop205" offset="1.68539006263018E-02" stop-color="#e0bf9e"/><stop id="stop207" offset="0.202246993780136" stop-color="#e6b891"/><stop id="stop209" offset="1" stop-color="#7b5d39"/></radialGradient><radialGradient cx="0" cy="0" gradientTransform="matrix(-0.01429027,-0.99989789,1.2061368,-0.01723778,146.601,370.899)" gradientUnits="userSpaceOnUse" id="RadialGradient_9" r="87.054001"><stop id="stop212" offset="0" stop-color="#9a9a9a"/><stop id="stop214" offset="1" stop-color="#313131"/></radialGradient><linearGradient gradientTransform="translate(213.351,257.649)" gradientUnits="userSpaceOnUse" id="LinearGradient_7" x1="0" x2="-54" y1="0" y2="-87"><stop id="stop217" offset="0" stop-color="#484848"/><stop id="stop219" offset="1" stop-color="#000000"/></linearGradient><linearGradient gradientTransform="translate(133.101,343.149)" gradientUnits="userSpaceOnUse" id="LinearGradient_8" x1="0" x2="10.5" y1="0" y2="-85.5"><stop id="stop222" offset="0" stop-color="#8d8d8d"/><stop id="stop224" offset="1" stop-color="#000000"/></linearGradient><linearGradient gradientTransform="translate(239.24,380.259)" gradientUnits="userSpaceOnUse" id="LinearGradient_9" x1="0" x2="3.5999999" y1="0" y2="-129"><stop id="stop227" offset="0" stop-color="#ffffff"/><stop id="stop229" offset="1" stop-color="#000000"/></linearGradient><linearGradient gradientTransform="translate(115.007,352.336)" gradientUnits="userSpaceOnUse" id="LinearGradient_10" x1="0" x2="108" y1="0" y2="-33.75"><stop id="stop232" offset="0" stop-color="#ffffff"/><stop id="stop234" offset="1" stop-color="#000000"/></linearGradient><linearGradient gradientTransform="translate(226.61,87.059)" gradientUnits="userSpaceOnUse" id="LinearGradient_11" x1="0" x2="-51.527" y1="0" y2="-64.410004"><stop id="stop237" offset="0" stop-color="#df9000"/><stop id="stop239" offset="0.730337023735046" stop-color="#7f5200"/><stop id="stop241" offset="0.990000009536743" stop-color="#3f2600"/><stop id="stop243" offset="1" stop-color="#3f2600"/></linearGradient></defs><g id="g3336" transform="matrix(0.64050449,0,0,0.64031522,0,25.600003)"><path d="M 21.801909,-5.8628467 20.776094,-5.7212321 C 20.358107,-5.6829128 19.93346,-5.6645862 19.505482,-5.6645862 11.933431,-5.6645862 5.7802038,-11.727359 5.7802038,-19.219608 5.7802038,-19.687769 5.8035178,-20.1476 5.8501457,-20.602433 L 6.0200048,-21.705361 5.6553074,-22.421765 C 5.2356556,-23.396407 5.0008504,-24.469346 5.0008504,-25.600597 5.0008504,-30.100611 8.6994481,-33.732611 13.237349,-33.732611 14.44135,-33.732611 15.588732,-33.474372 16.621208,-33.012875 L 17.392235,-32.603026 18.319799,-32.721316 C 18.711141,-32.754637 19.107479,-32.771297 19.507147,-32.771297 27.074201,-32.771297 33.232425,-26.716854 33.232425,-19.219608 33.232425,-18.719791 33.204115,-18.226639 33.149161,-17.741817 L 32.947661,-16.528929 33.220768,-15.900827 C 33.538837,-15.036144 33.713692,-14.099821 33.713692,-13.128512 33.713692,-8.6268316 30.02009,-4.9948322 25.480524,-4.9948322 24.426398,-4.9948322 23.417236,-5.1897606 22.489672,-5.5479624 L 21.801909,-5.8628467 z M 32.409774,-13.128512 C 32.409774,-14.216445 32.14999,-15.244401 31.692036,-16.155733 31.628755,-16.280687 31.608772,-16.420636 31.638747,-16.588907 31.825259,-17.441927 31.928507,-18.319938 31.928507,-19.219608 31.928507,-25.978792 26.373116,-31.466776 19.507147,-31.466776 18.779417,-31.466776 18.068341,-31.408464 17.382243,-31.290175 17.224041,-31.261852 17.062509,-31.293507 16.927621,-31.378475 15.860173,-32.041565 14.594557,-32.42809 13.237349,-32.42809 9.4005331,-32.42809 6.3047685,-29.362549 6.3047685,-25.600597 6.3047685,-24.337728 6.652813,-23.163159 7.2573114,-22.148532 7.3405757,-22.008583 7.3688855,-21.841978 7.3355798,-21.682037 7.1707166,-20.885663 7.0841218,-20.064298 7.0841218,-19.219608 7.0841218,-12.465422 12.637847,-6.9691071 19.505482,-6.9691071 20.281504,-6.9691071 21.04254,-7.0407474 21.781926,-7.1773639 21.926806,-7.2040208 22.076681,-7.180696 22.206574,-7.1107217 23.1791,-6.5925787 24.294841,-6.2993531 25.480524,-6.2993531 29.315675,-6.2993531 32.409774,-9.3648938 32.409774,-13.128512 z" id="path3338" style="fill:#000000;fill-opacity:1;fill-rule:evenodd;stroke:none"/><path d="M 15.478823,-11.02595 C 14.602883,-11.535763 13.885145,-12.220512 13.337266,-13.065201 12.787722,-13.913223 12.486306,-14.791234 12.486306,-15.679241 12.486306,-16.30068 12.712785,-16.860474 13.157416,-17.303645 13.602047,-17.75348 14.178235,-17.976731 14.824366,-17.976731 15.370579,-17.976731 15.87183,-17.796797 16.273164,-17.426933 16.636196,-17.102052 16.917629,-16.645553 17.124124,-16.120746 17.313967,-15.64592 17.520462,-15.261062 17.725292,-14.972834 17.890155,-14.739586 18.134952,-14.527998 18.481331,-14.354728 18.787744,-14.198119 19.252358,-14.096489 19.903485,-14.096489 20.777759,-14.096489 21.432216,-14.296416 21.8935,-14.631293 22.346458,-14.96617 22.50799,-15.304379 22.50799,-15.7009 22.50799,-16.054104 22.406408,-16.277355 22.234884,-16.448959 21.995082,-16.690537 21.667021,-16.892129 21.227386,-17.038742 20.72447,-17.205348 20.023385,-17.393612 19.139119,-17.591872 17.891821,-17.876768 16.817712,-18.221641 15.945103,-18.618162 15.017539,-19.04134 14.254838,-19.636121 13.688642,-20.39251 13.094135,-21.195549 12.807706,-22.176855 12.807706,-23.286447 12.807706,-24.359387 13.112453,-25.342359 13.718617,-26.192047 14.326446,-27.038403 15.194059,-27.674836 16.291482,-28.104678 L 17.104141,-28.374579 C 17.965093,-28.609492 18.919301,-28.726116 19.945117,-28.726116 21.039209,-28.726116 22.028388,-28.591166 22.877683,-28.30627 23.708661,-28.031371 24.434725,-27.648179 25.01924,-27.158359 25.582106,-26.685199 26.026737,-26.158726 26.314831,-25.588935 26.594599,-25.029141 26.747806,-24.452686 26.747806,-23.874565 26.747806,-23.261457 26.522992,-22.703328 26.108336,-22.243497 25.668701,-21.752011 25.095843,-21.495439 24.438055,-21.495439 23.895173,-21.495439 23.38393,-21.640385 22.997584,-22.005251 22.707824,-22.28015 22.443044,-22.670007 22.174933,-23.168158 21.901827,-23.717956 21.602075,-24.107812 21.280675,-24.364385 21.055862,-24.549317 20.57626,-24.71259 19.720303,-24.71259 18.960933,-24.71259 18.416385,-24.547651 18.045027,-24.287746 17.672003,-24.02451 17.585408,-23.799592 17.585408,-23.594668 17.585408,-23.429728 17.62371,-23.329765 17.690321,-23.24313 17.793569,-23.10818 17.951771,-22.971563 18.188241,-22.843277 18.459683,-22.696664 18.739451,-22.583372 19.014223,-22.50007 19.323966,-22.408437 19.858522,-22.266822 20.602904,-22.08189 21.563774,-21.860305 22.456366,-21.610396 23.252373,-21.337163 24.075023,-21.0556 24.804418,-20.704063 25.413912,-20.277553 26.056712,-19.829384 26.567955,-19.251263 26.930987,-18.55985 27.304011,-17.843447 27.478866,-16.995425 27.478866,-16.057436 27.478866,-14.906192 27.169123,-13.841583 26.556298,-12.908592 25.936812,-11.97227 25.035893,-11.247536 23.90683,-10.746053 22.781097,-10.242905 21.45553,-10.001327 19.99008,-10.001327 18.231539,-10.001327 16.704472,-10.332872 15.478823,-11.02595 z M 23.398918,-11.887301 C 24.344799,-12.308813 25.045884,-12.886934 25.512164,-13.596673 25.985105,-14.316409 26.229902,-15.137774 26.229902,-16.057436 26.229902,-16.847146 26.083357,-17.485245 25.823572,-17.981729 25.557127,-18.489876 25.179107,-18.918052 24.699505,-19.252929 24.206581,-19.599468 23.587095,-19.901024 22.847708,-20.155931 22.101661,-20.412503 21.249035,-20.649083 20.311479,-20.867336 19.557105,-21.0556 18.999235,-21.200547 18.656186,-21.302176 18.301481,-21.408804 17.941779,-21.555417 17.593735,-21.745347 17.240694,-21.936943 16.929286,-22.180187 16.699477,-22.485075 16.449684,-22.80829 16.336445,-23.184818 16.336445,-23.594668 16.336445,-24.317735 16.724456,-24.88586 17.327289,-25.309038 17.971754,-25.762205 18.79274,-25.962131 19.720303,-25.962131 20.66785,-25.962131 21.507154,-25.79386 22.068355,-25.335695 22.562945,-24.935842 22.965944,-24.382711 23.282348,-23.742946 23.517153,-23.311438 23.708661,-23.054866 23.858536,-22.909919 23.945131,-22.828282 24.109994,-22.74498 24.438055,-22.74498 24.737807,-22.74498 24.974277,-22.849941 25.177442,-23.078191 25.398925,-23.324767 25.498842,-23.586337 25.498842,-23.874565 25.498842,-24.227768 25.403921,-24.614293 25.197425,-25.027475 25.005918,-25.410667 24.681187,-25.81052 24.214907,-26.200377 23.776937,-26.570241 23.197418,-26.88346 22.483011,-27.121705 21.793583,-27.353287 20.944288,-27.476575 19.945117,-27.476575 18.696153,-27.476575 17.618714,-27.289977 16.717795,-26.931775 L 16.10497,-26.64688 C 15.520455,-26.326997 15.065832,-25.92881 14.732775,-25.463981 14.286479,-24.837544 14.05667,-24.111145 14.05667,-23.286447 14.05667,-22.39844 14.281483,-21.690367 14.689478,-21.140569 15.115791,-20.570778 15.705302,-20.099285 16.463006,-19.756077 17.235698,-19.402874 18.226543,-19.081325 19.413891,-18.809758 20.318141,-18.608166 21.062523,-18.409905 21.622059,-18.223307 22.208239,-18.026713 22.719481,-17.735153 23.11915,-17.330302 23.55712,-16.892129 23.756954,-16.335667 23.756954,-15.7009 23.756954,-14.83955 23.347294,-14.151469 22.631221,-13.62333 21.896831,-13.088526 20.962606,-12.846948 19.903485,-12.846948 19.144115,-12.846948 18.459683,-12.963572 17.9168,-13.240137 17.420545,-13.490045 17.005889,-13.828255 16.707803,-14.251432 16.433031,-14.636291 16.183238,-15.114449 15.963421,-15.659249 15.800223,-16.070764 15.615376,-16.340665 15.435525,-16.502272 15.273993,-16.648885 15.082485,-16.72719 14.824366,-16.72719 14.482982,-16.72719 14.23652,-16.618896 14.041682,-16.422302 13.833521,-16.212379 13.73527,-15.972467 13.73527,-15.679241 13.73527,-15.082794 13.935104,-14.438031 14.384731,-13.746618 14.826031,-13.065201 15.400554,-12.517069 16.099974,-12.110552 17.082492,-11.55409 18.379749,-11.250868 19.99008,-11.250868 21.323973,-11.250868 22.466358,-11.470787 23.398918,-11.887301 z" id="path3340" style="fill:#000000;fill-opacity:1;fill-rule:evenodd;stroke:none"/><path d="M 0,-3.651992 0,-36.328324 C 0,-38.342584 1.6353097,-39.980316 3.6503044,-39.980316 L 36.318198,-39.980316 C 38.331527,-39.980316 39.968502,-38.342584 39.968502,-36.328324 L 39.968502,-3.651992 C 39.968502,-1.6360658 38.331527,0 36.318198,0 L 3.6503044,0 C 1.6353097,0 0,-1.6360658 0,-3.651992 z M 38.719538,-3.651992 38.719538,-36.328324 C 38.719538,-37.651172 37.640434,-38.730775 36.318198,-38.730775 L 3.6503044,-38.730775 C 2.326403,-38.730775 1.2489636,-37.651172 1.2489636,-36.328324 L 1.2489636,-3.651992 C 1.2489636,-2.3274785 2.326403,-1.2495411 3.6503044,-1.2495411 L 36.318198,-1.2495411 C 37.640434,-1.2495411 38.719538,-2.3274785 38.719538,-3.651992 z" id="path3342" style="fill:#000000;fill-opacity:1;fill-rule:evenodd;stroke:none"/></g></svg>