<?xml version="1.0" ?><!DOCTYPE svg  PUBLIC '-//W3C//DTD SVG 1.0//EN'  'http://www.w3.org/TR/2001/REC-SVG-20010904/DTD/svg10.dtd'><svg enable-background="new 0 0 200 200" height="200px" id="Layer_1" version="1.0" viewBox="0 0 200 200" width="200px" xml:space="preserve" xmlns="http://www.w3.org/2000/svg" xmlns:xlink="http://www.w3.org/1999/xlink"><g id="New_Symbol"/><g id="New_Symbol_1_"/><g id="New_Symbol_1"/><g id="New_Symbol_9_2_"/><g id="New_Symbol_7"/><g id="New_Symbol_9_1_"/><g id="New_Symbol_9"/><g id="Nuevo_símbolo"/><g id="New_Symbol_10"/><g id="New_Symbol_12"/><g id="New_Symbol_14"/><g id="New_Symbol_15"/><g id="New_Symbol_16"/><g id="New_Symbol_17_1_"/><g id="New_Symbol_18"/><g id="New_Symbol_19"/><g id="New_Symbol_17"/><g><g><g><path d="M103,157.4c-1,1-1.1,2.6-0.1,3.7c1,1,2.6,1.1,3.7,0.1c1-1,1.1-2.6,0.1-3.7C105.7,156.4,104.1,156.4,103,157.4z      M106,160.5c-0.7,0.7-1.8,0.6-2.4,0c-0.7-0.7-0.6-1.8,0-2.4c0.7-0.7,1.8-0.6,2.4,0C106.7,158.8,106.7,159.9,106,160.5z"/></g><g><path d="M104.8,162.3L104.8,162.3c-0.8,0-1.6-0.3-2.2-0.9c-0.6-0.6-0.9-1.4-0.9-2.2c0-0.8,0.3-1.6,0.9-2.1     c1.2-1.1,3.2-1.1,4.3,0.1c1.2,1.2,1.1,3.1-0.1,4.3C106.4,162,105.6,162.3,104.8,162.3z M104.8,158c-0.3,0-0.6,0.1-0.9,0.4     c-0.2,0.2-0.4,0.5-0.4,0.9c0,0.3,0.1,0.7,0.4,0.9c0.5,0.5,1.3,0.5,1.8,0c0.2-0.2,0.4-0.5,0.4-0.9c0-0.3-0.1-0.7-0.4-0.9     C105.5,158.2,105.2,158,104.8,158z"/></g></g><g><g><path d="M76.2,98.9c-1.7-1.8-4.5-1.8-6.3-0.1l-24.5,23.7c-1.8,1.7-1.8,4.5-0.1,6.3l44.6,46c1.7,1.8,4.5,1.8,6.3,0.1l24.5-23.7     c1.8-1.7,1.8-4.5,0.1-6.3L76.2,98.9z M120.2,145.5c1.4,1.4,1.3,3.6-0.1,5l-24.5,23.7c-1.4,1.4-3.6,1.3-5-0.1l-44.7-46     c-1.4-1.4-1.4-3.7,0-5.1l24.5-23.7c1.4-1.4,3.7-1.3,5.1,0.1L120.2,145.5z"/></g><g><path d="M93.2,177L93.2,177c-1.4,0-2.8-0.6-3.7-1.6l-44.6-46c-1-1-1.5-2.3-1.5-3.7s0.6-2.7,1.6-3.7l24.5-23.7     c1-1,2.3-1.5,3.6-1.5c1.4,0,2.8,0.6,3.7,1.6l44.6,46c2,2.1,2,5.4-0.1,7.4l-24.5,23.7C95.8,176.4,94.5,177,93.2,177z M72.9,99.1     c-0.7,0-1.4,0.3-1.9,0.8l-24.5,23.7c-0.5,0.5-0.8,1.2-0.8,2c0,0.8,0.3,1.5,0.8,2l44.7,46c1.1,1.1,2.8,1.1,3.9,0.1l24.5-23.7     c1.1-1.1,1.2-2.8,0.1-4L75,100C74.4,99.4,73.7,99.1,72.9,99.1z"/></g></g><g><g><path d="M74.9,104.7l38.2,39.4l-23.8,23.1l-38.2-39.4L74.9,104.7 M75,103.4l-25.1,24.3l39.4,40.6l25.1-24.3L75,103.4L75,103.4z"/></g><g><path d="M89.3,169.4l-40.5-41.7L75,102.3l40.5,41.7L89.3,169.4z M52.2,127.8L89.3,166l22.7-22l-37.1-38.3L52.2,127.8z"/></g></g><g><g><path d="M57.4,117.9l7.5-7.2c0.4-0.4,0.5-1.1,0-1.6s-1.1-0.5-1.6,0l-7.5,7.2c-0.4,0.4-0.5,1.1,0,1.6     C56.2,118.3,57,118.3,57.4,117.9z"/></g></g><g><g><rect height="11.2" transform="matrix(0.9999 1.484212e-02 -1.484212e-02 0.9999 1.9248 -0.9782)" width="2.5" x="65.6" y="123.6"/></g></g><g><g><rect height="21.6" transform="matrix(0.9999 1.484212e-02 -1.484212e-02 0.9999 1.923 -1.0517)" width="2.5" x="70.6" y="118.2"/></g></g><g><g><path d="M142.2,46H57.8V23h84.4V46z M60.3,43.5h79.4v-18H60.3V43.5z"/></g></g><g><g><path d="M135.5,45.6H64.8V29.8h70.7V45.6z M67.3,43.1H133V32.3H67.3V43.1z"/></g></g><g><g><path d="M183.1,76.7H109V66.5H91v10.2H16.9V43.5h166.3V76.7z M111.5,74.2h69.2V46H19.4v28.2h69.2V64h23V74.2z"/></g></g><g><g><polygon points="183.1,148.4 122.2,148.4 122.2,145.9 180.6,145.9 180.6,76.7 111.5,76.7 111.5,97.2 88.5,97.2 88.5,76.7      19.4,76.7 19.4,145.9 63.6,145.9 63.6,148.4 16.9,148.4 16.9,74.2 91,74.2 91,94.7 109,94.7 109,74.2 183.1,74.2    "/></g></g><g><g><path d="M111.5,97.2h-23V64h23V97.2z M91,94.7h18V66.5H91V94.7z"/></g></g><g><g><rect height="3" width="71" x="19" y="80"/></g></g><g><g><rect height="3" width="71" x="111" y="80"/></g></g></g></svg>